<svg id="Layer_1" data-name="Layer 1" xmlns="http://www.w3.org/2000/svg" viewBox="0 0 131 40"><defs><style>.cls-1{fill:#fff;}</style></defs><path class="cls-1" d="M1.79,31,12,5.94H16L26.31,31h-4l-9-22.66H14.7L5.77,31Zm5.45-6.23V21.49H20.7v3.32Z"/><path class="cls-1" d="M35.22,31.43a8.49,8.49,0,0,1-4.57-1.28,9,9,0,0,1-3.23-3.54,11.16,11.16,0,0,1-1.18-5.2,11.28,11.28,0,0,1,1.16-5.2,9.08,9.08,0,0,1,3.18-3.56,8.39,8.39,0,0,1,4.64-1.29,8.23,8.23,0,0,1,3.79.77,5.89,5.89,0,0,1,2.36,2.17,9.74,9.74,0,0,1,1.21,3.21,19.27,19.27,0,0,1,.37,3.9,15.09,15.09,0,0,1-.39,3.29A12.31,12.31,0,0,1,41.33,28,6.79,6.79,0,0,1,39,30.48,7,7,0,0,1,35.22,31.43Zm1-3.21a6.21,6.21,0,0,0,3.46-.91,5.61,5.61,0,0,0,2.11-2.46,8.36,8.36,0,0,0,.7-3.44,8.47,8.47,0,0,0-.72-3.6,5.33,5.33,0,0,0-2.13-2.39,6.48,6.48,0,0,0-3.42-.85A5.78,5.78,0,0,0,31.6,16.5,7.3,7.3,0,0,0,30,21.41,7.45,7.45,0,0,0,30.77,25a6,6,0,0,0,5.49,3.27ZM42.53,4h3.71V31H42.83c-.07-.57-.14-1.26-.21-2.09s-.09-1.53-.09-2.12Z"/><path class="cls-1" d="M57.68,31.43a8.43,8.43,0,0,1-4.53-1.28,9.12,9.12,0,0,1-3.25-3.54,10.93,10.93,0,0,1-1.19-5.2,10.82,10.82,0,0,1,1.21-5.2,9.26,9.26,0,0,1,3.35-3.56A9,9,0,0,1,58,11.36a6.79,6.79,0,0,1,4.5,1.35,7,7,0,0,1,2.24,3.64,18.59,18.59,0,0,1,.64,5.06A15.69,15.69,0,0,1,65,24.7,12.68,12.68,0,0,1,63.79,28a6.79,6.79,0,0,1-2.36,2.49A7,7,0,0,1,57.68,31.43Zm1-3.21a6.21,6.21,0,0,0,3.46-.91,5.61,5.61,0,0,0,2.11-2.46,8.36,8.36,0,0,0,.7-3.44,8.47,8.47,0,0,0-.72-3.6,5.33,5.33,0,0,0-2.13-2.39,6.48,6.48,0,0,0-3.42-.85,5.78,5.78,0,0,0-4.66,1.93,7.35,7.35,0,0,0-1.64,4.91A7.45,7.45,0,0,0,53.23,25a6,6,0,0,0,5.49,3.27ZM65,11.74H68.7V31H65.3c-.11-.95-.18-1.76-.24-2.44S65,27.34,65,26.83Z"/><path class="cls-1" d="M71.73,11.74h3.71V31H71.73Zm11.06-.38a8.8,8.8,0,0,1,2.94.46A6.15,6.15,0,0,1,88,13.19a6.37,6.37,0,0,1,1.45,2.25,8.23,8.23,0,0,1,.52,3V31H86.27V19.28a4.76,4.76,0,0,0-1.1-3.42,4.47,4.47,0,0,0-3.35-1.14,6.31,6.31,0,0,0-3.17.81,7,7,0,0,0-2.34,2.15,6.56,6.56,0,0,0-1.1,3l0-2.13A8.94,8.94,0,0,1,76,15.69a8.5,8.5,0,0,1,1.62-2.3,6.75,6.75,0,0,1,2.31-1.51A7.62,7.62,0,0,1,82.79,11.36Z"/></svg>